<?xml version="1.0" encoding="utf-8"?>
<!-- Generator: Adobe Illustrator 27.5.0, SVG Export Plug-In . SVG Version: 6.00 Build 0)  -->
<svg version="1.1" id="Layer_1" xmlns="http://www.w3.org/2000/svg" xmlns:xlink="http://www.w3.org/1999/xlink" x="0px" y="0px"
	 viewBox="0 0 565 566" style="enable-background:new 0 0 565 566;" xml:space="preserve">
<style type="text/css">
	.st0{opacity:0.367;fill-rule:evenodd;clip-rule:evenodd;fill:#234E5F;enable-background:new    ;}
	.st1{opacity:0.721;fill:none;stroke:url(#SVGID_1_);enable-background:new    ;}
	.st2{fill-rule:evenodd;clip-rule:evenodd;fill:#08C5FA;}
	.st3{fill:none;stroke:url(#SVGID_00000083075824313266729110000001041563156475695258_);stroke-miterlimit:10;}
</style>
<g>
	<path class="st0" d="M405.5,0.4l159.1,159.1L405.5,318.6L246.4,159.5L405.5,0.4z"/>
	
		<linearGradient id="SVGID_1_" gradientUnits="userSpaceOnUse" x1="-398.9299" y1="667.7405" x2="-399.8078" y2="668.6321" gradientTransform="matrix(3.747591e-14 612.028 612.028 -3.747591e-14 -408828.9062 244870.6875)">
		<stop  offset="0" style="stop-color:#224AD5"/>
		<stop  offset="0.3798" style="stop-color:#229BD5"/>
		<stop  offset="1" style="stop-color:#1EC5C0"/>
	</linearGradient>
	<path class="st1" d="M-206.2,771.5l612-612"/>
	<g transform="translate(351 106)">
		<path class="st2" d="M54.5,24.4l3.5,3.5l-3.5,3.5L51,28L54.5,24.4z M54.5,75.4l3.5,3.5l-3.5,3.5L51,79L54.5,75.4z M79.5,49.4
			l3.5,3.5l-3.5,3.5L76,53L79.5,49.4z M28.5,49.4l3.5,3.5l-3.5,3.5L25,53L28.5,49.4z M2.1,50.4l2.1,2.1l-2.1,2.1L0,52.6L2.1,50.4z
			 M106.1,50.4l2.1,2.1l-2.1,2.1l-2.1-2.1L106.1,50.4z M54.1,102.4l2.1,2.1l-2.1,2.1l-2.1-2.1L54.1,102.4z M54.1,0.3l2.1,2.1
			l-2.1,2.1L52,2.4L54.1,0.3z"/>
		<circle class="st2" cx="67" cy="41" r="3"/>
		<circle class="st2" cx="67" cy="66" r="3"/>
		<circle class="st2" cx="41" cy="41" r="3"/>
		<circle class="st2" cx="41" cy="66" r="3"/>
		<circle class="st2" cx="16" cy="66" r="2"/>
		<circle class="st2" cx="93" cy="66" r="2"/>
		<circle class="st2" cx="16" cy="41" r="2"/>
		<circle class="st2" cx="93" cy="41" r="2"/>
		<circle class="st2" cx="80" cy="28" r="2"/>
		<circle class="st2" cx="30.1" cy="28" r="2"/>
		<circle class="st2" cx="80" cy="79" r="2"/>
		<circle class="st2" cx="30.1" cy="79" r="2"/>
		<circle class="st2" cx="67" cy="92" r="2"/>
		<circle class="st2" cx="67" cy="15" r="2"/>
		<circle class="st2" cx="42" cy="92" r="2"/>
		<circle class="st2" cx="42" cy="15" r="2"/>
		<path class="st2" d="M54.1,45.4l7.1,7.1l-7.1,7.1L47,52.5L54.1,45.4z"/>
	</g>
</g>
<linearGradient id="SVGID_00000146484692763589372270000007825968928943048101_" gradientUnits="userSpaceOnUse" x1="376.6406" y1="106.6367" x2="530.1432" y2="106.6367" gradientTransform="matrix(0.7514 0.6598 -0.6598 0.7514 185.3799 -269.3864)">
	<stop  offset="0" style="stop-color:#224AD5"/>
	<stop  offset="0.3798" style="stop-color:#229BD5"/>
	<stop  offset="1" style="stop-color:#1EC5C0"/>
</linearGradient>
<path style="fill:none;stroke:url(#SVGID_00000146484692763589372270000007825968928943048101_);stroke-miterlimit:10;" d="
	M388.6,70.5c8.5-0.1,45.5,0.4,77.5,29c31.1,27.8,36.3,63.1,37.3,71.8"/>
</svg>
