<?xml version="1.0" encoding="utf-8"?>
<!-- Generator: Adobe Illustrator 27.5.0, SVG Export Plug-In . SVG Version: 6.00 Build 0)  -->
<svg version="1.1" id="Layer_1" xmlns="http://www.w3.org/2000/svg" xmlns:xlink="http://www.w3.org/1999/xlink" x="0px" y="0px"
	 viewBox="0 0 565 566" style="enable-background:new 0 0 565 566;" xml:space="preserve">
<style type="text/css">
	.st0{opacity:0.367;fill-rule:evenodd;clip-rule:evenodd;fill:#234E5F;enable-background:new    ;}
	.st1{opacity:0.721;fill:none;stroke:url(#SVGID_1_);enable-background:new    ;}
	.st2{fill-rule:evenodd;clip-rule:evenodd;fill:#08C5FA;}
	.st3{fill:none;stroke:url(#SVGID_00000006673840940998746210000001067849583150103707_);stroke-miterlimit:10;}
</style>
<g>
	<path class="st0" d="M0.6,159L159.7,0l159.1,159.1L159.7,318.2L0.6,159z"/>
	
		<linearGradient id="SVGID_1_" gradientUnits="userSpaceOnUse" x1="-1597.1211" y1="-6.832869e-02" x2="-1597.999" y2="-0.9599" gradientTransform="matrix(612.028 0 0 612.028 978197.5625 759.3484)">
		<stop  offset="0" style="stop-color:#224AD5"/>
		<stop  offset="0.3798" style="stop-color:#229BD5"/>
		<stop  offset="1" style="stop-color:#1EC5C0"/>
	</linearGradient>
	<path class="st1" d="M771.8,770.7l-612-612"/>
	<g transform="translate(351 106)">
		<path class="st2" d="M-220.4,53l3.5-3.5l3.5,3.5l-3.4,3.5L-220.4,53z M-169.4,53l3.5-3.5l3.5,3.5l-3.4,3.5L-169.4,53z M-195.4,28
			l3.5-3.5l3.5,3.5l-3.4,3.5L-195.4,28z M-195.4,79l3.5-3.5l3.5,3.5l-3.4,3.5L-195.4,79z M-194.4,105.4l2.1-2.1l2.1,2.1l-2,2.1
			L-194.4,105.4z M-194.4,1.4l2.1-2.1l2.1,2.1l-2.1,2.1L-194.4,1.4z M-142.4,53.4l2.1-2.1l2.1,2.1l-2.1,2.1L-142.4,53.4z
			 M-244.5,53.4l2.1-2.1l2.1,2.1l-2.1,2.1L-244.5,53.4z"/>
		<circle class="st2" cx="-203.8" cy="40.5" r="3"/>
		<circle class="st2" cx="-178.8" cy="40.5" r="3"/>
		<circle class="st2" cx="-203.8" cy="66.5" r="3"/>
		<circle class="st2" cx="-178.8" cy="66.5" r="3"/>
		<circle class="st2" cx="-178.8" cy="91.5" r="2"/>
		<circle class="st2" cx="-178.8" cy="14.5" r="2"/>
		<circle class="st2" cx="-203.8" cy="91.5" r="2"/>
		<circle class="st2" cx="-203.8" cy="14.5" r="2"/>
		<circle class="st2" cx="-216.8" cy="27.5" r="2"/>
		<circle class="st2" cx="-216.8" cy="77.4" r="2"/>
		<circle class="st2" cx="-165.8" cy="27.5" r="2"/>
		<circle class="st2" cx="-165.8" cy="77.4" r="2"/>
		<circle class="st2" cx="-152.8" cy="40.5" r="2"/>
		<circle class="st2" cx="-229.8" cy="40.5" r="2"/>
		<circle class="st2" cx="-152.8" cy="65.5" r="2"/>
		<circle class="st2" cx="-229.8" cy="65.5" r="2"/>
		<path class="st2" d="M-199.4,53.4l7.1-7.1l7.1,7.1l-7.1,7.1L-199.4,53.4z"/>
	</g>
</g>
<linearGradient id="SVGID_00000053532501507474151790000003536742193056749462_" gradientUnits="userSpaceOnUse" x1="57.8344" y1="-137.9911" x2="211.2823" y2="-137.9911" gradientTransform="matrix(0.6598 -0.7514 -0.7514 -0.6598 -82.4412 118.8365)">
	<stop  offset="0" style="stop-color:#224AD5"/>
	<stop  offset="0.3798" style="stop-color:#229BD5"/>
	<stop  offset="1" style="stop-color:#1EC5C0"/>
</linearGradient>
<path style="fill:none;stroke:url(#SVGID_00000053532501507474151790000003536742193056749462_);stroke-miterlimit:10;" d="
	M70.7,175.9c-0.1-8.5,0.4-45.5,29-77.5c27.8-31.1,63.1-36.3,71.8-37.3"/>
</svg>
