<?xml version="1.0" encoding="utf-8"?>
<!-- Generator: Adobe Illustrator 27.5.0, SVG Export Plug-In . SVG Version: 6.00 Build 0)  -->
<svg version="1.1" id="Layer_1" xmlns="http://www.w3.org/2000/svg" xmlns:xlink="http://www.w3.org/1999/xlink" x="0px" y="0px"
	 viewBox="0 0 565 566" style="enable-background:new 0 0 565 566;" xml:space="preserve">
<style type="text/css">
	.st0{opacity:0.367;fill-rule:evenodd;clip-rule:evenodd;fill:#234E5F;enable-background:new    ;}
	.st1{opacity:0.721;fill:none;stroke:url(#SVGID_1_);enable-background:new    ;}
	.st2{fill-rule:evenodd;clip-rule:evenodd;fill:#08C5FA;}
	.st3{fill:none;stroke:url(#SVGID_00000180353221395787300980000007090692719728389561_);stroke-miterlimit:10;}
</style>
<g>
	<path class="st0" d="M564.8,612.2L405.6,771.3L246.5,612.2l159.1-159.1L564.8,612.2z"/>
	
		<linearGradient id="SVGID_1_" gradientUnits="userSpaceOnUse" x1="-798.7665" y1="-0.3941" x2="-799.6444" y2="-1.2857" gradientTransform="matrix(-612.028 -1.200512e-05 1.200512e-05 -612.028 -489016.75 -187.4518)">
		<stop  offset="0" style="stop-color:#224AD5"/>
		<stop  offset="0.3798" style="stop-color:#229BD5"/>
		<stop  offset="1" style="stop-color:#1EC5C0"/>
	</linearGradient>
	<path class="st1" d="M-206.4,0.5l612,612"/>
	<g transform="translate(351 106)">
		<path class="st2" d="M83.7,506.2l-3.5,3.5l-3.5-3.5l3.4-3.5L83.7,506.2z M32.7,506.2l-3.5,3.5l-3.5-3.5l3.4-3.5L32.7,506.2z
			 M58.7,531.2l-3.5,3.5l-3.5-3.5l3.4-3.5L58.7,531.2z M58.7,480.2l-3.5,3.5l-3.5-3.5l3.4-3.5L58.7,480.2z M57.7,453.8l-2.1,2.1
			l-2.1-2.1l2-2.1L57.7,453.8z M57.7,557.8l-2.1,2.1l-2.1-2.1l2.1-2.1L57.7,557.8z M5.7,505.8l-2.1,2.1l-2.1-2.1l2.1-2.1L5.7,505.8z
			 M107.8,505.8l-2.1,2.1l-2.1-2.1l2.1-2.1L107.8,505.8z"/>
		<circle class="st2" cx="67.1" cy="518.7" r="3"/>
		<circle class="st2" cx="42.1" cy="518.7" r="3"/>
		<circle class="st2" cx="67.1" cy="492.7" r="3"/>
		<circle class="st2" cx="42.1" cy="492.7" r="3"/>
		<circle class="st2" cx="42.1" cy="467.7" r="2"/>
		<circle class="st2" cx="42.1" cy="544.7" r="2"/>
		<circle class="st2" cx="67.1" cy="467.7" r="2"/>
		<circle class="st2" cx="67.1" cy="544.7" r="2"/>
		<circle class="st2" cx="80.1" cy="531.7" r="2"/>
		<circle class="st2" cx="80.1" cy="481.8" r="2"/>
		<circle class="st2" cx="29.1" cy="531.7" r="2"/>
		<circle class="st2" cx="29.1" cy="481.8" r="2"/>
		<circle class="st2" cx="16.1" cy="518.7" r="2"/>
		<circle class="st2" cx="93.1" cy="518.7" r="2"/>
		<circle class="st2" cx="16.1" cy="493.7" r="2"/>
		<circle class="st2" cx="93.1" cy="493.7" r="2"/>
		<path class="st2" d="M62.7,505.8l-7.1,7.1l-7.1-7.1l7.1-7.1L62.7,505.8z"/>
	</g>
</g>
<linearGradient id="SVGID_00000068675918665222461400000007693640148776955801_" gradientUnits="userSpaceOnUse" x1="343.2084" y1="750.2173" x2="496.6564" y2="750.2173" gradientTransform="matrix(-0.6598 0.7514 0.7514 0.6598 168.6812 -148.0565)">
	<stop  offset="0" style="stop-color:#224AD5"/>
	<stop  offset="0.3798" style="stop-color:#229BD5"/>
	<stop  offset="1" style="stop-color:#1EC5C0"/>
</linearGradient>
<path style="fill:none;stroke:url(#SVGID_00000068675918665222461400000007693640148776955801_);stroke-miterlimit:10;" d="
	M494.6,595.3c0.1,8.5-0.4,45.5-29,77.5c-27.8,31.1-63.1,36.3-71.8,37.3"/>
</svg>
