<?xml version="1.0" encoding="utf-8"?>
<!-- Generator: Adobe Illustrator 27.5.0, SVG Export Plug-In . SVG Version: 6.00 Build 0)  -->
<svg version="1.1" id="Layer_1" xmlns="http://www.w3.org/2000/svg" xmlns:xlink="http://www.w3.org/1999/xlink" x="0px" y="0px"
	 viewBox="0 0 565 566" style="enable-background:new 0 0 565 566;" xml:space="preserve">
<style type="text/css">
	.st0{fill:#D0D2D3;}
	.st1{fill:#A6A8AB;}
	.st2{fill:#808184;}
</style>
<path class="st0" d="M62.8,395.6c73-124.2,146-248.4,218.9-372.7c16.5,28,32.9,55.9,49.4,83.9c-56.1,95.5-112.4,193.5-168.5,289
	C129.4,396.6,96.2,394.9,62.8,395.6z"/>
<path class="st1" d="M447.2,485.1c-145,0-290,0-435.1-0.1c16.3-28,32.6-56,48.9-84c111.5,0,224.1,0,335.7,0
	C414,429,430,457.1,447.2,485.1z"/>
<path class="st2" d="M334.8,113.4c72.7,123.8,145.4,247.7,218,371.5c-32.9,0.1-65.7,0.1-98.6,0.2c-55.9-95.2-111.8-194-167.7-289.2
	C302.6,167.2,318.7,142.1,334.8,113.4z"/>
</svg>
